# xmcd
#
# Track frame offsets:
#	182
#	19900
#	40065
#	53617
#	65272
#	82037
#	94542
#	107035
#	123807
#	141320
#	165275
#
# Disc length: 2364 seconds
#
# Revision: 4
# Processed by: cddbd v1.5.2PL0 Copyright (c) Steve Scherf et al.
# Submitted via: audiograbber 1.83.01
#
DISCID=82093a0b
DTITLE=Townes Van Zandt - The Late Great Townes Van Zandt
DYEAR=1973
DGENRE=Folk
TTITLE0=No Lonesome Tune
TTITLE1=Sad Cinderella
TTITLE2=German Mustard (A Clapalong)
TTITLE3=Don't Let The Sunshine Fool Ya'
TTITLE4=Honky Tonkin'
TTITLE5=Snow Don't Fall
TTITLE6=Fräulein
TTITLE7=Pancho And Lefty
TTITLE8=If I Needed You
TTITLE9=Silver Ships Of Andilar
TTITLE10=Heavenly Houseboat Blues
EXTD=
EXTT0=
EXTT1=
EXTT2=
EXTT3=
EXTT4=
EXTT5=
EXTT6=
EXTT7=
EXTT8=
EXTT9=
EXTT10=
PLAYORDER=
